<svg width="20" height="4" viewBox="0 0 20 4" fill="none" xmlns="http://www.w3.org/2000/svg">
<path d="M10 4C11.2037 4 12.1795 3.10457 12.1795 2C12.1795 0.895431 11.2037 0 10 0C8.79629 0 7.82048 0.895431 7.82048 2C7.82048 3.10457 8.79629 4 10 4Z" fill="#2F3435"/>
<path d="M17.8205 4C19.0242 4 20 3.10457 20 2C20 0.895431 19.0242 0 17.8205 0C16.6168 0 15.6409 0.895431 15.6409 2C15.6409 3.10457 16.6168 4 17.8205 4Z" fill="#2F3435"/>
<path d="M2.17953 4C3.38325 4 4.35906 3.10457 4.35906 2C4.35906 0.895431 3.38325 0 2.17953 0C0.975808 0 0 0.895431 0 2C0 3.10457 0.975808 4 2.17953 4Z" fill="#2F3435"/>
</svg>
