<?xml version="1.0" encoding="UTF-8"?>
<svg id="_Слой_2" data-name="Слой 2" xmlns="http://www.w3.org/2000/svg" viewBox="0 0 402 396">
  <defs>
    <style>
      .cls-1 {
        fill: #228138;
      }

      .cls-1, .cls-2, .cls-3, .cls-4, .cls-5 {
        stroke-width: 0px;
      }

      .cls-2 {
        fill: #f2945f;
      }

      .cls-3 {
        fill: #e7441f;
      }

      .cls-4 {
        fill: #bf3319;
      }

      .cls-5 {
        fill: #a92e19;
      }
    </style>
  </defs>
  <g id="_Слой_1-2" data-name="Слой 1">
    <g>
      <path class="cls-3" d="m135.94,348.92c-19.06-16.13-29.82-36.84-35.02-61.08-2.41-11.22-2.78-22.49-1.65-33.52,1.21-11.86,4.42-23.67,8.03-35.1,5.43-17.22,14.8-32.4,26.13-46.53,8.41-10.49,18.59-18.69,29.47-26.23,3.48-2.41,7.21-4.49,10.99-6.39.86-.43,2.74.13,3.59.88,2.74,2.41,5.12,5.25,7.88,7.64.83.72,2.79,1.13,3.68.65,11.04-6,21.8-12.53,32.98-18.24,8.97-4.58,18.12-9.22,27.72-12.07,17.26-5.13,34.86-5.88,52.48-.47,11.99,3.68,23.06,8.8,32.41,17.28-.88.38-1.75,1.05-2.65,1.11-17.07,1.05-33.6,4.29-49.86,9.9-15.66,5.4-29.52,13.76-42.04,24.07-11.36,9.35-22.25,19.59-31.8,30.77-13.45,15.74-26.16,32.22-37.91,49.26-12.52,18.18-22.27,38.02-29.14,59.12-1.06,3.26-1.55,6.71-2.3,10.07,3.43-2.35,5.9-5.01,7.94-7.97,9.99-14.47,19.63-29.18,29.82-43.5,14.74-20.72,30.54-40.6,49.76-57.45,9.18-8.05,19.34-13.43,32.26-13.32,11.36.1,14.4,4.87,15.2,15.59,1.21,16.18-4.79,30.47-12.11,44.36-4.24,8.05-8.56,16.06-12.84,24.1-.34.71-.69,1.41-1.03,2.12,0,0,.01-.05.01-.05-1.45,1.02-3.04,1.88-4.34,3.07-9.54,8.78-18.74,17.95-28.59,26.36-12.66,10.82-26.58,19.8-42.28,25.73-7.12,2.69-14.2,5.59-21.51,7.63-4.92,1.38-9.8,4.45-15.31,2.19Zm15.95-167.43c-2.17,1.43-3.44,2.19-4.62,3.06-.66.49-1.2,1.14-1.77,1.75-14.62,15.67-22.91,34.48-27.13,55.25-1.36,6.69-2.81,13.58,1.62,19.73,1.14,1.59,3.36,2.4,5.08,3.56.91-1.67,2.14-3.24,2.68-5.03,3.08-10.17,5.35-20.64,9.17-30.52,3.82-9.88,9.15-19.19,13.8-28.75,2.89-5.92,3.04-11.98,1.17-19.06Z"/>
      <path class="cls-4" d="m248.98,281.87c4.28-8.03,8.6-16.04,12.84-24.1,7.32-13.89,13.32-28.18,12.11-44.36-.8-10.73-3.84-15.5-15.2-15.59-12.92-.11-23.08,5.27-32.26,13.32-19.22,16.85-35.02,36.73-49.76,57.45-10.19,14.32-19.84,29.03-29.82,43.5-2.04,2.96-4.51,5.62-7.94,7.97.75-3.36,1.23-6.81,2.3-10.07,6.87-21.1,16.62-40.94,29.14-59.12,11.74-17.05,24.46-33.53,37.91-49.26,9.55-11.17,20.44-21.41,31.8-30.77,12.52-10.3,26.38-18.67,42.04-24.07,16.25-5.61,32.79-8.85,49.86-9.9.9-.06,1.77-.72,2.65-1.11,2.58.88,5.17,1.76,8.2,2.79.1,10.1-3.18,19.54-7.33,28.67-6.66,14.6-17.2,25.88-30.48,34.79-1.49,1-2.93,3.47-2.86,5.2.58,15.21-3.47,29.54-8.4,43.59-2.48,7.06-6.19,13.78-10.02,20.25-5.4,9.15-11.1,18.16-17.27,26.8-4.79,6.71-10.45,12.79-15.82,19.07-.54.63-1.7.74-2.57,1.09-.36.33-.72.65-1.08.98,0,0-.01,0-.01,0-.54.48-1.07.95-1.61,1.43,0,0,0,.05,0,.05-1.68-.37-3.36-.73-5.49-1.2,4.72-6,9.08-11.53,14.06-17.85-2.8-.21-4.1-.43-5.39-.38-4.04.15-5.55-.6-3.37-5.14,1.73-3.6,1.91-7.94,2.78-11.96,0,0-.01.05-.01.05.34-.71.69-1.41,1.03-2.12Z"/>
      <path class="cls-5" d="m247.95,283.94c-.87,4.01-1.05,8.36-2.78,11.96-2.18,4.54-.67,5.29,3.37,5.14,1.29-.05,2.59.17,5.39.38-4.98,6.33-9.33,11.86-14.06,17.85,2.13.46,3.81.83,5.49,1.2-5.85,5.22-11.14,11.33-17.69,15.44-10,6.28-20.69,11.57-31.43,16.56-11.39,5.28-23.82,6.7-36.13,5.37-8.53-.92-17.54-2.15-24.19-8.91,5.51,2.25,10.39-.82,15.31-2.2,7.31-2.05,14.39-4.95,21.51-7.63,15.69-5.93,29.62-14.91,42.28-25.73,9.85-8.42,19.05-17.58,28.59-26.36,1.29-1.19,2.88-2.06,4.34-3.07Z"/>
      <path class="cls-1" d="m281.59,64.2c-21.11,25.7-46.51,43.89-77.85,54.92.48-19.89,7.4-35.53,23.89-46.92,16.46-11.37,34.51-9.5,53.96-8Z"/>
      <path class="cls-5" d="m245.38,320.42c.54-.48,1.07-.95,1.61-1.43-.54.48-1.07.95-1.61,1.43Z"/>
      <path class="cls-5" d="m247,318.98c.36-.33.72-.65,1.08-.98-.36.33-.72.65-1.08.98Z"/>
      <path class="cls-2" d="m151.89,181.5c1.88,7.08,1.72,13.14-1.17,19.06-4.66,9.56-9.98,18.86-13.8,28.75-3.82,9.88-6.08,20.35-9.17,30.52-.54,1.78-1.77,3.36-2.68,5.03-1.72-1.17-3.94-1.98-5.08-3.56-4.43-6.15-2.98-13.04-1.62-19.73,4.22-20.76,12.5-39.57,27.13-55.25.57-.61,1.11-1.26,1.77-1.75,1.18-.87,2.44-1.63,4.62-3.06Z"/>
      <path class="cls-5" d="m248.98,281.87c-.34.71-.69,1.41-1.03,2.12.34-.71.69-1.41,1.03-2.12Z"/>
    </g>
  </g>
</svg>