<svg width="14" height="14" viewBox="0 0 14 14" fill="none" xmlns="http://www.w3.org/2000/svg">
<path d="M6.99999 0C3.1377 0 2.09483e-05 3.13768 2.09483e-05 6.99997C-0.00134615 7.12575 0.0642787 7.24333 0.173653 7.30759C0.283028 7.37048 0.417011 7.37048 0.526386 7.30759C0.63576 7.24333 0.701385 7.12575 0.700018 6.99997C0.700018 3.51639 3.51641 0.699997 6.99999 0.699997C9.18612 0.699997 11.1043 1.81288 12.2349 3.49999H9.79998C9.6742 3.49862 9.55662 3.56424 9.49236 3.67362C9.42947 3.78299 9.42947 3.91698 9.49236 4.02635C9.55662 4.13573 9.6742 4.20135 9.79998 4.19998H13.3V0.699997C13.3013 0.605662 13.2644 0.51406 13.1974 0.447069C13.1304 0.380077 13.0388 0.343163 12.9445 0.34453C12.7517 0.348631 12.5972 0.507225 12.6 0.699997V2.80409C11.3217 1.10195 9.28865 0 6.99999 0ZM13.6445 6.6445C13.4517 6.6486 13.2972 6.8072 13.3 6.99997C13.3 10.4836 10.4836 13.2999 6.99999 13.2999C4.81387 13.2999 2.89434 12.1871 1.76505 10.5H4.2C4.32578 10.5027 4.44336 10.4357 4.50762 10.3277C4.57051 10.2183 4.57051 10.083 4.50762 9.97359C4.44336 9.86558 4.32578 9.79859 4.2 9.79996H1.20588C1.16076 9.79176 1.11564 9.79176 1.07052 9.79996H0.700018V13.2999C0.698651 13.4257 0.764276 13.5433 0.87365 13.6076C0.983025 13.6705 1.11701 13.6705 1.22638 13.6076C1.33576 13.5433 1.40138 13.4257 1.40002 13.2999V11.1945C2.67696 12.8966 4.71133 13.9999 6.99999 13.9999C10.8623 13.9999 14 10.8623 14 6.99997C14.0013 6.90564 13.9644 6.81403 13.8974 6.74704C13.8304 6.68005 13.7388 6.64314 13.6445 6.6445Z" fill="black"/>
</svg>
