<svg width="17" height="17" viewBox="0 0 17 17" fill="none" xmlns="http://www.w3.org/2000/svg">
<path fill-rule="evenodd" clip-rule="evenodd" d="M13.7794 0.557222C13.4206 0.198333 12.9389 0 12.4383 0H1.88889C0.840555 0 0 0.85 0 1.88889V15.1111C0 16.15 0.85 17 1.88889 17H15.1111C16.15 17 17 16.15 17 15.1111V4.56167C17 4.06111 16.8017 3.57944 16.4428 3.23L13.7794 0.557222ZM8.5 15.1111C6.93222 15.1111 5.66667 13.8456 5.66667 12.2778C5.66667 10.71 6.93222 9.44444 8.5 9.44444C10.0678 9.44444 11.3333 10.71 11.3333 12.2778C11.3333 13.8456 10.0678 15.1111 8.5 15.1111ZM9.44444 5.66667H3.77778C2.73889 5.66667 1.88889 4.81667 1.88889 3.77778C1.88889 2.73889 2.73889 1.88889 3.77778 1.88889H9.44444C10.4833 1.88889 11.3333 2.73889 11.3333 3.77778C11.3333 4.81667 10.4833 5.66667 9.44444 5.66667Z" fill="#FA4A0C"/>
</svg>
