<svg width="14" height="14" viewBox="0 0 14 14" fill="none" xmlns="http://www.w3.org/2000/svg">
<path d="M12.0578 7.73869C12.0578 7.52764 12.1281 7.31658 12.1281 7.03518C12.1281 6.75377 12.1281 6.54271 12.0578 6.33166L13.5351 5.13568C13.6758 4.99497 13.6758 4.85427 13.6055 4.71357L12.1985 2.25126C12.1281 2.1809 11.9874 2.11055 11.7763 2.1809L10.0176 2.88442C9.6658 2.60302 9.24369 2.39196 8.82158 2.1809L8.54017 0.351759C8.61052 0.140704 8.39944 0 8.25877 0H5.4447C5.30397 0 5.09294 0.140704 5.09294 0.281407L4.81154 2.1809C4.38943 2.32161 4.03767 2.60302 3.61556 2.88442L1.92712 2.1809C1.71607 2.11055 1.57536 2.1809 1.43463 2.32161L0.0275993 4.78392C-0.0427523 4.85427 0.0275993 5.06533 0.168303 5.20603L1.64569 6.33166C1.64569 6.54271 1.57533 6.75377 1.57533 7.03518C1.57533 7.31658 1.57533 7.52764 1.64569 7.73869L0.168303 8.93467C0.0275993 9.0754 0.0275993 9.21608 0.0979509 9.35681L1.50498 11.8191C1.57533 11.8895 1.71601 11.9598 1.92709 11.8895L3.68588 11.186C4.03764 11.4674 4.45975 11.6784 4.88186 11.8895L5.16327 13.7186C5.16327 13.8593 5.30397 14 5.51503 14H8.32909C8.46982 14 8.68085 13.8593 8.68085 13.7186L8.96225 11.8895C9.38436 11.6784 9.80647 11.4674 10.1582 11.186L11.917 11.8895C12.0578 11.9598 12.2688 11.8895 12.3392 11.7487L13.7462 9.28643C13.8165 9.14573 13.8165 8.93467 13.6758 8.86432L12.0578 7.73869ZM6.85173 9.49749C5.51505 9.49749 4.38943 8.37186 4.38943 7.03518C4.38943 5.69849 5.51505 4.57286 6.85173 4.57286C8.18841 4.57286 9.31404 5.69849 9.31404 7.03518C9.31404 8.37186 8.18841 9.49749 6.85173 9.49749Z" fill="black"/>
</svg>
